# xmcd
#
# Track frame offsets:
#	150
#	12472
#	27022
#	41635
#	57312
#	72915
#	87570
#	99497
#	115762
#	128682
#	144525
#	158835
#	171940
#	183125
#	198482
#	211332
#
# Disc length: 3034 seconds
#
# Revision: 1
# Processed by: cddbd v1.5.1PL0 Copyright (c) Steve Scherf et al.
# Submitted via: CDex 1.50Beta5
#
DISCID=dc0bd810
DTITLE=岸 洋子 - 我が青春譜
DYEAR=1900
DGENRE=Other
TTITLE0=枯葉
TTITLE1=バラ色の人生
TTITLE2=リラの花の咲く頃
TTITLE3=セ・シ・ボン
TTITLE4=パリ祭
TTITLE5=ミラボー橋
TTITLE6=ラ・メール
TTITLE7=詩人の魂
TTITLE8=人の気も知らないで
TTITLE9=恋心
TTITLE10=別離
TTITLE11=ラストダンスは私と
TTITLE12=オー・シャンゼリゼ
TTITLE13=雪が降る
TTITLE14=サン・トワ・マミー
TTITLE15=愛の讃歌
EXTD=
EXTT0=
EXTT1=
EXTT2=
EXTT3=
EXTT4=
EXTT5=
EXTT6=
EXTT7=
EXTT8=
EXTT9=
EXTT10=
EXTT11=
EXTT12=
EXTT13=
EXTT14=
EXTT15=
PLAYORDER=
